<?xml version="1.0" encoding="UTF-8" standalone="no"?>
<!DOCTYPE svg PUBLIC "-//W3C//DTD SVG 1.1//EN" "http://www.w3.org/Graphics/SVG/1.1/DTD/svg11.dtd">
<svg xmlns="http://www.w3.org/2000/svg" version="1.1" viewBox="0.00 0.00 1170.00 467.00">
<g stroke-width="2.00" fill="none" stroke-linecap="butt">
<path stroke="#808080" vector-effect="non-scaling-stroke" d="
  M 993.04 267.94
  A 0.72 0.72 0.0 0 0 993.76 267.22
  L 993.76 115.03
  A 0.72 0.72 0.0 0 0 992.83 114.34
  L 971.94 120.72
  A 0.72 0.72 0.0 0 0 971.43 121.41
  L 971.43 267.22
  A 0.72 0.72 0.0 0 0 972.15 267.94
  L 993.04 267.94"
/>
<path stroke="#7c5819" vector-effect="non-scaling-stroke" d="
  M 226.57 259.99
  Q 225.87 262.56 224.92 263.61"
/>
<path stroke="#7c5f22" vector-effect="non-scaling-stroke" d="
  M 224.92 263.61
  Q 216.26 243.59 207.81 224.29
  Q 188.84 180.90 177.85 155.25
  Q 171.42 140.25 168.02 135.95
  Q 159.68 125.41 146.22 120.68
  Q 141.69 119.09 135.82 118.58
  C 124.34 117.60 114.00 117.58 100.04 117.50
  A 0.02 0.01 -9.2 0 0 100.02 117.52
  L 210.75 375.02
  A 0.53 0.53 0.0 0 0 211.40 375.32
  C 226.16 370.61 239.19 363.60 248.63 351.49
  Q 251.59 347.69 256.10 337.19
  Q 297.37 241.10 350.55 118.11
  A 0.47 0.47 0.0 0 0 350.12 117.45
  Q 330.68 117.30 310.51 118.55
  C 299.84 119.21 288.11 127.17 281.86 134.91
  Q 278.44 139.15 272.80 152.17
  Q 259.81 182.18 250.04 205.13
  Q 238.39 232.49 226.57 259.99"
/>
<path stroke="#f7b63b" vector-effect="non-scaling-stroke" d="
  M 224.92 263.61
  Q 223.23 263.86 222.62 262.63
  Q 218.31 253.85 217.04 250.72
  C 214.84 245.24 212.78 241.93 210.88 236.65
  Q 210.62 235.94 207.11 227.84
  Q 187.27 182.08 173.65 150.16
  C 169.94 141.48 166.02 134.62 159.15 129.43
  Q 148.68 121.51 135.29 120.45
  Q 129.35 119.98 125.47 119.70
  Q 121.84 119.44 103.80 118.94
  A 1.23 1.23 0.0 0 0 102.68 120.75
  C 105.14 125.44 106.63 130.29 109.02 135.22
  Q 114.47 146.44 117.90 155.53
  Q 119.17 158.89 121.93 164.29
  Q 123.35 167.09 125.87 173.21
  Q 136.04 197.92 136.57 199.29
  Q 138.21 203.44 141.44 210.33
  Q 146.56 221.22 152.00 234.45
  Q 154.52 240.56 154.91 241.34
  C 157.41 246.29 159.26 252.44 161.36 256.58
  Q 163.81 261.43 165.03 264.85
  C 166.74 269.65 170.59 277.02 172.59 282.04
  Q 177.27 293.82 179.07 297.48
  Q 180.36 300.12 181.94 304.36
  C 183.83 309.43 186.17 313.90 188.21 319.08
  Q 189.19 321.54 191.54 326.94
  C 198.08 341.91 204.23 357.16 211.38 371.85
  A 1.96 1.95 67.2 0 0 213.79 372.84
  Q 222.77 369.68 232.13 364.05
  C 240.03 359.30 246.84 352.28 250.69 344.70
  Q 253.26 339.63 258.85 325.38
  Q 259.66 323.32 260.54 322.16
  A 2.15 2.12 75.6 0 0 260.79 321.73
  L 305.49 217.49
  A 0.92 0.90 -47.6 0 0 305.46 216.71
  Q 298.58 203.95 298.23 203.31
  C 291.65 191.06 284.44 173.62 279.84 164.86
  Q 274.69 155.02 274.21 154.19
  A 0.27 0.27 0.0 0 0 273.73 154.20
  Q 273.03 155.57 267.46 168.85
  Q 253.77 201.53 245.73 219.17
  Q 242.50 226.26 240.72 231.00
  Q 238.10 237.98 235.80 242.87
  Q 232.13 250.71 229.19 258.63
  A 2.87 2.49 -22.5 0 1 228.93 259.15
  Q 227.40 261.50 226.57 259.99"
/>
<path stroke="#808080" vector-effect="non-scaling-stroke" d="
  M 953.5106 141.7545
  A 11.67 11.28 -19.5 0 0 938.7447 135.0170
  A 11.67 11.28 -19.5 0 0 931.5094 149.5455
  A 11.67 11.28 -19.5 0 0 946.2753 156.2830
  A 11.67 11.28 -19.5 0 0 953.5106 141.7545"
/>
<path stroke="#808080" vector-effect="non-scaling-stroke" d="
  M 916.63 253.17
  A 0.37 0.36 63.9 0 0 915.99 252.95
  Q 913.88 255.44 911.13 257.30
  C 905.65 261.00 895.96 261.67 892.54 254.68
  Q 890.62 250.76 890.31 245.01
  C 889.74 234.53 890.69 223.95 890.75 213.59
  Q 890.90 190.82 890.65 176.84
  A 0.33 0.33 0.0 0 1 890.98 176.50
  L 911.99 176.50
  A 1.73 1.72 4.0 0 0 913.70 175.02
  L 914.44 169.80
  A 1.06 1.06 0.0 0 0 913.36 168.59
  L 891.08 169.28
  A 0.70 0.69 88.4 0 1 890.37 168.60
  Q 890.07 156.91 891.43 144.13
  A 0.94 0.94 0.0 0 0 890.22 143.13
  L 869.26 149.53
  A 0.79 0.78 -8.5 0 0 868.70 150.28
  L 868.70 168.17
  A 0.57 0.57 0.0 0 1 868.15 168.74
  L 856.06 169.11
  A 1.59 1.59 0.0 0 0 854.52 170.70
  L 854.52 175.54
  A 1.13 1.13 0.0 0 0 855.69 176.67
  L 867.96 176.29
  A 0.71 0.71 0.0 0 1 868.69 177.00
  Q 868.64 211.54 868.27 238.00
  Q 868.16 245.77 868.87 249.95
  Q 871.76 267.03 889.12 269.58
  C 899.23 271.07 917.47 266.85 916.63 253.17"
/>
<path stroke="#808080" vector-effect="non-scaling-stroke" d="
  M 618.13 191.16
  C 618.02 188.41 618.37 184.34 617.98 180.96
  Q 617.11 173.37 616.95 167.86
  A 0.44 0.44 0.0 0 0 616.41 167.44
  L 597.84 172.19
  A 0.34 0.34 0.0 0 0 597.59 172.52
  L 597.59 266.98
  A 0.96 0.96 0.0 0 0 598.55 267.94
  L 620.48 267.94
  A 0.69 0.69 0.0 0 0 621.17 267.28
  C 621.60 256.91 621.25 236.81 621.15 202.00
  C 621.14 198.29 626.63 192.40 628.99 190.20
  C 636.65 183.04 645.79 183.24 655.66 185.93
  A 1.00 0.99 -69.5 0 0 656.82 185.40
  L 665.47 167.39
  A 0.74 0.74 0.0 0 0 664.97 166.35
  Q 645.91 161.77 631.52 174.81
  Q 623.55 182.03 618.66 191.28
  A 0.28 0.28 0.0 0 1 618.13 191.16"
/>
<path stroke="#808080" vector-effect="non-scaling-stroke" d="
  M 583.78 210.97
  Q 585.78 190.58 573.43 178.26
  C 552.78 157.66 522.32 165.15 506.35 186.67
  C 497.43 198.69 494.49 214.28 496.18 229.43
  C 499.32 257.46 521.96 271.90 548.85 269.40
  C 562.43 268.13 577.19 260.80 582.51 247.72
  Q 583.58 245.10 583.33 242.71
  A 0.69 0.69 0.0 0 0 582.19 242.26
  Q 579.02 244.97 577.64 246.19
  C 571.64 251.47 564.73 254.65 556.66 255.45
  C 547.67 256.35 539.70 255.55 531.84 250.82
  C 518.27 242.66 517.28 225.92 518.13 211.83
  A 0.53 0.53 0.0 0 1 518.66 211.33
  L 583.38 211.33
  A 0.40 0.40 0.0 0 0 583.78 210.97"
/>
<path stroke="#808080" vector-effect="non-scaling-stroke" d="
  M 674.25 239.78
  L 667.85 258.59
  A 0.86 0.86 0.0 0 0 668.10 259.52
  Q 670.21 261.38 673.09 262.69
  Q 690.17 270.49 709.52 269.79
  C 722.10 269.33 737.45 264.64 743.97 253.02
  C 751.14 240.21 747.72 226.22 736.02 217.42
  Q 729.56 212.55 724.67 210.61
  Q 707.40 203.76 702.26 201.77
  C 696.80 199.66 689.76 196.29 687.87 191.18
  C 684.89 183.13 691.55 177.50 698.49 175.63
  C 715.44 171.08 725.51 181.75 735.65 193.29
  A 0.58 0.58 0.0 0 0 736.63 193.12
  L 743.76 174.35
  A 0.42 0.41 25.6 0 0 743.57 173.84
  Q 735.03 169.14 725.25 167.50
  C 709.56 164.86 686.21 165.34 675.86 179.59
  C 667.83 190.63 670.78 204.53 681.00 213.03
  C 690.91 221.26 702.68 225.43 716.57 230.88
  Q 721.39 232.77 725.98 236.05
  Q 731.71 240.15 731.49 246.36
  C 731.04 258.81 714.61 261.28 705.43 259.56
  C 693.96 257.41 682.75 249.18 675.09 239.63
  A 0.49 0.49 0.0 0 0 674.25 239.78"
/>
<path stroke="#808080" vector-effect="non-scaling-stroke" d="
  M 771.18 194.36
  C 775.89 189.97 782.43 182.08 789.81 177.78
  C 797.40 173.36 810.29 172.25 815.60 180.71
  Q 819.35 186.67 819.26 193.93
  C 819.20 198.21 819.47 203.19 819.14 206.75
  A 0.64 0.64 0.0 0 1 818.56 207.33
  Q 810.15 208.12 797.25 209.72
  C 784.41 211.30 770.80 216.42 763.63 226.90
  C 754.19 240.69 758.52 259.46 773.87 266.97
  C 790.80 275.26 807.43 266.75 818.17 253.21
  A 0.54 0.54 0.0 0 1 819.14 253.53
  Q 819.30 260.41 823.56 264.97
  C 830.82 272.74 845.55 271.38 853.25 264.98
  Q 856.99 261.86 857.89 257.28
  A 0.70 0.70 0.0 0 0 856.95 256.49
  C 855.17 257.15 852.57 258.61 850.21 258.72
  C 842.14 259.08 841.33 252.16 841.35 245.74
  Q 841.46 214.38 841.41 199.75
  C 841.36 184.13 837.33 171.82 820.55 167.60
  Q 816.35 166.55 809.78 166.30
  C 793.85 165.72 779.63 169.54 765.89 176.98
  A 1.00 0.99 67.7 0 0 765.41 178.15
  L 770.29 194.13
  A 0.54 0.54 0.0 0 0 771.18 194.36"
/>
<path stroke="#808080" vector-effect="non-scaling-stroke" d="
  M 1095.28 211.01
  Q 1097.30 190.59 1084.94 178.24
  C 1064.28 157.58 1033.76 165.06 1017.74 186.60
  C 1008.79 198.63 1005.83 214.24 1007.51 229.42
  C 1010.63 257.50 1033.30 271.99 1060.24 269.51
  C 1073.84 268.25 1088.63 260.92 1093.97 247.83
  Q 1095.05 245.20 1094.80 242.81
  A 0.69 0.69 0.0 0 0 1093.66 242.36
  Q 1090.48 245.07 1089.10 246.29
  C 1083.08 251.57 1076.16 254.75 1068.07 255.54
  C 1059.07 256.44 1051.08 255.63 1043.21 250.88
  C 1029.63 242.70 1028.65 225.93 1029.52 211.81
  A 0.53 0.53 0.0 0 1 1030.05 211.31
  L 1094.88 211.37
  A 0.41 0.40 -86.8 0 0 1095.28 211.01"
/>
<path stroke="#808080" vector-effect="non-scaling-stroke" d="
  M 952.41 267.94
  A 0.90 0.90 0.0 0 0 953.31 267.04
  L 953.31 168.98
  A 0.90 0.90 0.0 0 0 952.19 168.11
  L 932.05 173.26
  A 0.90 0.90 0.0 0 0 931.37 174.13
  L 931.37 267.04
  A 0.90 0.90 0.0 0 0 932.27 267.94
  L 952.41 267.94"
/>
<path stroke="#808080" vector-effect="non-scaling-stroke" d="
  M 408.02 168.56
  A 0.40 0.39 -11.3 0 0 407.65 169.10
  L 449.33 267.63
  A 0.61 0.61 0.0 0 0 449.89 268.00
  L 457.12 268.00
  A 1.55 1.55 0.0 0 0 458.57 267.00
  L 495.81 168.96
  A 0.31 0.31 0.0 0 0 495.52 168.54
  L 482.98 168.54
  A 0.76 0.75 -83.1 0 0 482.25 169.12
  Q 477.20 190.89 472.47 205.50
  Q 467.67 220.34 460.85 240.02
  A 0.68 0.68 0.0 0 1 459.53 239.86
  Q 459.34 238.06 458.80 236.71
  Q 448.52 210.79 431.85 168.94
  A 0.62 0.60 -10.5 0 0 431.28 168.56
  L 408.02 168.56"
/>
<path stroke="#7c5f22" vector-effect="non-scaling-stroke" d="
  M 456.44 337.22
  C 456.23 342.66 451.63 347.37 446.51 348.29
  Q 436.76 350.04 431.50 344.16
  C 422.08 333.63 429.43 315.44 444.78 317.49
  Q 451.07 318.33 455.17 324.08
  A 0.31 0.30 -29.1 0 0 455.54 324.18
  L 461.29 321.71
  A 0.26 0.25 61.7 0 0 461.40 321.34
  Q 456.01 313.11 447.47 311.64
  C 430.58 308.73 418.34 321.49 421.59 338.21
  Q 423.65 348.82 433.98 353.56
  Q 436.53 354.73 441.74 354.97
  Q 450.05 355.36 455.88 351.03
  C 462.14 346.37 463.65 339.05 463.40 331.65
  A 0.62 0.62 0.0 0 0 462.78 331.05
  L 443.46 331.05
  A 1.00 1.00 0.0 0 0 442.46 332.05
  L 442.46 335.59
  A 0.89 0.89 0.0 0 0 443.35 336.48
  L 455.73 336.48
  A 0.71 0.71 0.0 0 1 456.44 337.22"
/>
<path stroke="#7c5f22" vector-effect="non-scaling-stroke" d="
  M 552.1151 311.0778
  A 22.05 21.89 -92.3 0 0 531.1276 333.9885
  A 22.05 21.89 -92.3 0 0 553.8849 355.1422
  A 22.05 21.89 -92.3 0 0 574.8724 332.2315
  A 22.05 21.89 -92.3 0 0 552.1151 311.0778"
/>
<path stroke="#7c5f22" vector-effect="non-scaling-stroke" d="
  M 487.00 312.82
  L 487.03 353.24
  A 0.69 0.68 89.9 0 0 487.71 353.93
  L 510.05 353.95
  A 1.02 1.00 4.2 0 0 511.05 353.09
  L 511.66 349.16
  A 0.81 0.80 -85.8 0 0 510.86 348.23
  L 494.09 348.37
  A 0.36 0.35 89.1 0 1 493.73 348.01
  L 493.78 312.84
  A 0.54 0.54 0.0 0 0 493.24 312.30
  L 487.51 312.31
  A 0.51 0.51 0.0 0 0 487.00 312.82"
/>
<path stroke="#7c5f22" vector-effect="non-scaling-stroke" d="
  M 625.46 331.52
  C 633.66 322.90 627.58 312.57 616.76 312.40
  Q 615.99 312.39 599.63 312.39
  A 0.50 0.50 0.0 0 0 599.13 312.89
  L 599.13 353.16
  A 0.75 0.75 0.0 0 0 599.86 353.91
  Q 609.64 354.05 614.75 354.04
  C 620.34 354.03 626.18 353.00 629.09 348.19
  C 632.28 342.89 631.09 336.02 625.58 332.47
  A 0.62 0.62 0.0 0 1 625.46 331.52"
/>
<path stroke="#7c5f22" vector-effect="non-scaling-stroke" d="
  M 669.97 343.18
  Q 673.97 343.18 678.42 343.16
  A 0.83 0.83 0.0 0 1 679.19 343.69
  L 682.96 352.97
  A 1.79 1.78 78.9 0 0 684.62 354.09
  L 689.03 354.07
  A 0.74 0.74 0.0 0 0 689.72 353.06
  L 673.59 313.21
  A 1.18 1.17 -9.6 0 0 672.56 312.49
  Q 671.45 312.43 669.95 312.43
  Q 668.46 312.43 667.35 312.49
  A 1.18 1.17 9.5 0 0 666.32 313.22
  L 650.24 353.09
  A 0.74 0.74 0.0 0 0 650.93 354.10
  L 655.34 354.11
  A 1.79 1.78 -78.9 0 0 657.00 352.98
  L 660.75 343.70
  A 0.83 0.83 0.0 0 1 661.53 343.17
  Q 665.97 343.18 669.97 343.18"
/>
<path stroke="#7c5f22" vector-effect="non-scaling-stroke" d="
  M 719.63 313.01
  A 0.66 0.66 0.0 0 0 718.97 312.35
  L 713.56 312.35
  A 0.66 0.66 0.0 0 0 712.90 313.01
  L 712.90 353.24
  A 0.66 0.66 0.0 0 0 713.56 353.90
  L 736.18 353.90
  A 0.66 0.66 0.0 0 0 736.83 353.33
  L 737.44 349.04
  A 0.66 0.66 0.0 0 0 736.79 348.29
  L 720.29 348.29
  A 0.66 0.66 0.0 0 1 719.63 347.63
  L 719.63 313.01"
/>
<path stroke="#7c5f22" vector-effect="non-scaling-stroke" d="
  M 813.23 346.97
  Q 813.36 346.97 813.45 346.93
  Q 813.97 346.76 814.33 346.21
  Q 821.43 335.41 826.61 326.13
  A 0.22 0.22 0.0 0 1 827.02 326.24
  L 827.02 353.30
  A 0.76 0.76 0.0 0 0 827.78 354.06
  L 832.38 354.06
  A 0.76 0.76 0.0 0 0 833.14 353.30
  L 833.14 312.91
  A 0.56 0.56 0.0 0 0 832.58 312.35
  L 829.11 312.35
  A 1.52 1.50 -74.6 0 0 827.81 313.10
  Q 817.78 330.08 813.68 336.99
  Q 813.57 337.19 813.25 337.19
  Q 812.92 337.19 812.81 336.99
  Q 808.74 330.06 798.78 313.04
  A 1.52 1.50 74.8 0 0 797.48 312.29
  L 794.01 312.27
  A 0.56 0.56 0.0 0 0 793.45 312.83
  L 793.29 353.22
  A 0.76 0.76 0.0 0 0 794.04 353.98
  L 798.64 354.00
  A 0.76 0.76 0.0 0 0 799.41 353.24
  L 799.52 326.18
  A 0.22 0.22 0.0 0 1 799.93 326.08
  Q 805.07 335.38 812.12 346.21
  Q 812.48 346.76 813.00 346.93
  Q 813.09 346.97 813.23 346.97"
/>
<path stroke="#7c5f22" vector-effect="non-scaling-stroke" d="
  M 885.76 349.19
  A 0.75 0.75 0.0 0 0 885.01 348.44
  L 868.11 348.44
  A 0.75 0.75 0.0 0 1 867.36 347.69
  L 867.36 335.38
  A 0.75 0.75 0.0 0 1 868.11 334.63
  L 882.58 334.63
  A 0.75 0.75 0.0 0 0 883.33 333.88
  L 883.33 330.53
  A 0.75 0.75 0.0 0 0 882.58 329.78
  L 868.11 329.78
  A 0.75 0.75 0.0 0 1 867.36 329.03
  L 867.36 318.16
  A 0.75 0.75 0.0 0 1 868.11 317.41
  L 885.09 317.41
  A 0.75 0.75 0.0 0 0 885.84 316.66
  L 885.84 313.09
  A 0.75 0.75 0.0 0 0 885.09 312.34
  L 861.83 312.34
  A 0.75 0.75 0.0 0 0 861.08 313.09
  L 861.08 353.16
  A 0.75 0.75 0.0 0 0 861.83 353.91
  L 885.01 353.91
  A 0.75 0.75 0.0 0 0 885.76 353.16
  L 885.76 349.19"
/>
<path stroke="#7c5f22" vector-effect="non-scaling-stroke" d="
  M 911.47 313.02
  L 911.75 353.18
  A 0.69 0.69 0.0 0 0 912.45 353.87
  L 927.88 353.76
  A 18.70 17.86 -0.4 0 0 946.45 335.77
  L 946.41 329.95
  A 18.70 17.86 -0.4 0 0 927.59 312.22
  L 912.16 312.33
  A 0.69 0.69 0.0 0 0 911.47 313.02"
/>
<path stroke="#7c5f22" vector-effect="non-scaling-stroke" d="
  M 977.0250 313.0346
  A 0.82 0.82 0.0 0 0 976.2036 312.2160
  L 971.5836 312.2241
  A 0.82 0.82 0.0 0 0 970.7650 313.0455
  L 970.8350 353.1054
  A 0.82 0.82 0.0 0 0 971.6564 353.9240
  L 976.2764 353.9159
  A 0.82 0.82 0.0 0 0 977.0950 353.0945
  L 977.0250 313.0346"
/>
<path stroke="#7c5f22" vector-effect="non-scaling-stroke" d="
  M 1020.11 343.15
  Q 1024.12 343.16 1028.57 343.16
  A 0.84 0.83 79.0 0 1 1029.35 343.69
  L 1033.09 353.01
  A 1.79 1.78 79.1 0 0 1034.75 354.14
  L 1039.18 354.14
  A 0.74 0.74 0.0 0 0 1039.87 353.13
  L 1023.84 313.12
  A 1.18 1.18 0.0 0 0 1022.81 312.39
  Q 1021.70 312.33 1020.20 312.33
  Q 1018.70 312.32 1017.59 312.37
  A 1.18 1.18 0.0 0 0 1016.56 313.10
  L 1000.29 353.01
  A 0.74 0.74 0.0 0 0 1000.97 354.03
  L 1005.40 354.05
  A 1.79 1.78 -78.7 0 0 1007.07 352.93
  L 1010.87 343.64
  A 0.84 0.83 -78.7 0 1 1011.64 343.11
  Q 1016.10 343.14 1020.11 343.15"
/>
<path stroke="#808080" vector-effect="non-scaling-stroke" d="
  M 519.49 202.85
  L 562.50 202.85
  A 0.41 0.41 0.0 0 0 562.91 202.43
  C 562.88 193.60 560.23 180.68 552.48 175.88
  C 548.35 173.32 543.05 173.08 538.45 173.88
  C 526.87 175.89 519.90 191.39 518.88 202.18
  A 0.62 0.61 -87.4 0 0 519.49 202.85"
/>
<path stroke="#808080" vector-effect="non-scaling-stroke" d="
  M 818.50 215.15
  Q 809.79 214.37 801.29 216.31
  C 787.45 219.48 779.45 230.15 781.87 244.60
  C 783.23 252.72 789.38 257.06 797.53 256.93
  C 806.28 256.80 814.05 250.69 818.76 243.73
  A 2.79 2.72 62.4 0 0 819.22 242.20
  L 819.22 215.94
  A 0.80 0.79 2.8 0 0 818.50 215.15"
/>
<path stroke="#808080" vector-effect="non-scaling-stroke" d="
  M 1030.78 202.81
  L 1073.88 202.78
  A 0.41 0.41 0.0 0 0 1074.29 202.36
  C 1074.25 193.51 1071.59 180.57 1063.82 175.76
  C 1059.68 173.20 1054.37 172.97 1049.76 173.77
  C 1038.16 175.79 1031.18 191.33 1030.17 202.14
  A 0.62 0.61 -87.5 0 0 1030.78 202.81"
/>
<path stroke="#7c5f22" vector-effect="non-scaling-stroke" d="
  M 552.8872 317.2502
  A 15.82 15.37 -90.3 0 0 537.6002 333.1505
  A 15.82 15.37 -90.3 0 0 553.0528 348.8898
  A 15.82 15.37 -90.3 0 0 568.3398 332.9895
  A 15.82 15.37 -90.3 0 0 552.8872 317.2502"
/>
<path stroke="#7c5f22" vector-effect="non-scaling-stroke" d="
  M 605.41 317.70
  L 605.51 329.71
  A 0.28 0.28 0.0 0 0 605.80 329.99
  L 616.12 329.90
  A 6.57 6.17 -0.5 0 0 622.64 323.68
  L 622.64 323.44
  A 6.57 6.17 -0.5 0 0 616.02 317.32
  L 605.69 317.41
  A 0.28 0.28 0.0 0 0 605.41 317.70"
/>
<path stroke="#7c5f22" vector-effect="non-scaling-stroke" d="
  M 605.55 335.23
  L 605.45 348.59
  A 0.27 0.27 0.0 0 0 605.72 348.86
  L 616.41 348.93
  A 7.42 6.52 0.4 0 0 623.88 342.46
  L 623.88 341.60
  A 7.42 6.52 0.4 0 0 616.51 335.03
  L 605.82 334.96
  A 0.27 0.27 0.0 0 0 605.55 335.23"
/>
<path stroke="#7c5f22" vector-effect="non-scaling-stroke" d="
  M 662.96 337.31
  A 0.40 0.40 0.0 0 0 663.34 337.85
  L 676.34 337.83
  A 0.40 0.40 0.0 0 0 676.72 337.28
  L 670.18 320.31
  A 0.40 0.40 0.0 0 0 669.44 320.31
  L 662.96 337.31"
/>
<path stroke="#7c5f22" vector-effect="non-scaling-stroke" d="
  M 918.54 317.51
  L 918.60 348.15
  A 0.36 0.36 0.0 0 0 918.96 348.51
  L 925.96 348.50
  A 14.48 13.98 -0.1 0 0 940.41 334.49
  L 940.41 331.09
  A 14.48 13.98 -0.1 0 0 925.90 317.14
  L 918.90 317.15
  A 0.36 0.36 0.0 0 0 918.54 317.51"
/>
<path stroke="#7c5f22" vector-effect="non-scaling-stroke" d="
  M 1013.02 337.32
  A 0.41 0.41 0.0 0 0 1013.41 337.88
  L 1026.70 337.83
  A 0.41 0.41 0.0 0 0 1027.08 337.27
  L 1020.37 320.33
  A 0.41 0.41 0.0 0 0 1019.61 320.33
  L 1013.02 337.32"
/>
</g>
<path fill="#000000" d="
  M 1170.00 0.00
  L 1170.00 467.00
  L 0.00 467.00
  L 0.00 0.00
  L 1170.00 0.00
  Z
  M 993.04 267.94
  A 0.72 0.72 0.0 0 0 993.76 267.22
  L 993.76 115.03
  A 0.72 0.72 0.0 0 0 992.83 114.34
  L 971.94 120.72
  A 0.72 0.72 0.0 0 0 971.43 121.41
  L 971.43 267.22
  A 0.72 0.72 0.0 0 0 972.15 267.94
  L 993.04 267.94
  Z
  M 226.57 259.99
  Q 225.87 262.56 224.92 263.61
  Q 216.26 243.59 207.81 224.29
  Q 188.84 180.90 177.85 155.25
  Q 171.42 140.25 168.02 135.95
  Q 159.68 125.41 146.22 120.68
  Q 141.69 119.09 135.82 118.58
  C 124.34 117.60 114.00 117.58 100.04 117.50
  A 0.02 0.01 -9.2 0 0 100.02 117.52
  L 210.75 375.02
  A 0.53 0.53 0.0 0 0 211.40 375.32
  C 226.16 370.61 239.19 363.60 248.63 351.49
  Q 251.59 347.69 256.10 337.19
  Q 297.37 241.10 350.55 118.11
  A 0.47 0.47 0.0 0 0 350.12 117.45
  Q 330.68 117.30 310.51 118.55
  C 299.84 119.21 288.11 127.17 281.86 134.91
  Q 278.44 139.15 272.80 152.17
  Q 259.81 182.18 250.04 205.13
  Q 238.39 232.49 226.57 259.99
  Z
  M 953.5106 141.7545
  A 11.67 11.28 -19.5 0 0 938.7447 135.0170
  A 11.67 11.28 -19.5 0 0 931.5094 149.5455
  A 11.67 11.28 -19.5 0 0 946.2753 156.2830
  A 11.67 11.28 -19.5 0 0 953.5106 141.7545
  Z
  M 916.63 253.17
  A 0.37 0.36 63.9 0 0 915.99 252.95
  Q 913.88 255.44 911.13 257.30
  C 905.65 261.00 895.96 261.67 892.54 254.68
  Q 890.62 250.76 890.31 245.01
  C 889.74 234.53 890.69 223.95 890.75 213.59
  Q 890.90 190.82 890.65 176.84
  A 0.33 0.33 0.0 0 1 890.98 176.50
  L 911.99 176.50
  A 1.73 1.72 4.0 0 0 913.70 175.02
  L 914.44 169.80
  A 1.06 1.06 0.0 0 0 913.36 168.59
  L 891.08 169.28
  A 0.70 0.69 88.4 0 1 890.37 168.60
  Q 890.07 156.91 891.43 144.13
  A 0.94 0.94 0.0 0 0 890.22 143.13
  L 869.26 149.53
  A 0.79 0.78 -8.5 0 0 868.70 150.28
  L 868.70 168.17
  A 0.57 0.57 0.0 0 1 868.15 168.74
  L 856.06 169.11
  A 1.59 1.59 0.0 0 0 854.52 170.70
  L 854.52 175.54
  A 1.13 1.13 0.0 0 0 855.69 176.67
  L 867.96 176.29
  A 0.71 0.71 0.0 0 1 868.69 177.00
  Q 868.64 211.54 868.27 238.00
  Q 868.16 245.77 868.87 249.95
  Q 871.76 267.03 889.12 269.58
  C 899.23 271.07 917.47 266.85 916.63 253.17
  Z
  M 618.13 191.16
  C 618.02 188.41 618.37 184.34 617.98 180.96
  Q 617.11 173.37 616.95 167.86
  A 0.44 0.44 0.0 0 0 616.41 167.44
  L 597.84 172.19
  A 0.34 0.34 0.0 0 0 597.59 172.52
  L 597.59 266.98
  A 0.96 0.96 0.0 0 0 598.55 267.94
  L 620.48 267.94
  A 0.69 0.69 0.0 0 0 621.17 267.28
  C 621.60 256.91 621.25 236.81 621.15 202.00
  C 621.14 198.29 626.63 192.40 628.99 190.20
  C 636.65 183.04 645.79 183.24 655.66 185.93
  A 1.00 0.99 -69.5 0 0 656.82 185.40
  L 665.47 167.39
  A 0.74 0.74 0.0 0 0 664.97 166.35
  Q 645.91 161.77 631.52 174.81
  Q 623.55 182.03 618.66 191.28
  A 0.28 0.28 0.0 0 1 618.13 191.16
  Z
  M 583.78 210.97
  Q 585.78 190.58 573.43 178.26
  C 552.78 157.66 522.32 165.15 506.35 186.67
  C 497.43 198.69 494.49 214.28 496.18 229.43
  C 499.32 257.46 521.96 271.90 548.85 269.40
  C 562.43 268.13 577.19 260.80 582.51 247.72
  Q 583.58 245.10 583.33 242.71
  A 0.69 0.69 0.0 0 0 582.19 242.26
  Q 579.02 244.97 577.64 246.19
  C 571.64 251.47 564.73 254.65 556.66 255.45
  C 547.67 256.35 539.70 255.55 531.84 250.82
  C 518.27 242.66 517.28 225.92 518.13 211.83
  A 0.53 0.53 0.0 0 1 518.66 211.33
  L 583.38 211.33
  A 0.40 0.40 0.0 0 0 583.78 210.97
  Z
  M 674.25 239.78
  L 667.85 258.59
  A 0.86 0.86 0.0 0 0 668.10 259.52
  Q 670.21 261.38 673.09 262.69
  Q 690.17 270.49 709.52 269.79
  C 722.10 269.33 737.45 264.64 743.97 253.02
  C 751.14 240.21 747.72 226.22 736.02 217.42
  Q 729.56 212.55 724.67 210.61
  Q 707.40 203.76 702.26 201.77
  C 696.80 199.66 689.76 196.29 687.87 191.18
  C 684.89 183.13 691.55 177.50 698.49 175.63
  C 715.44 171.08 725.51 181.75 735.65 193.29
  A 0.58 0.58 0.0 0 0 736.63 193.12
  L 743.76 174.35
  A 0.42 0.41 25.6 0 0 743.57 173.84
  Q 735.03 169.14 725.25 167.50
  C 709.56 164.86 686.21 165.34 675.86 179.59
  C 667.83 190.63 670.78 204.53 681.00 213.03
  C 690.91 221.26 702.68 225.43 716.57 230.88
  Q 721.39 232.77 725.98 236.05
  Q 731.71 240.15 731.49 246.36
  C 731.04 258.81 714.61 261.28 705.43 259.56
  C 693.96 257.41 682.75 249.18 675.09 239.63
  A 0.49 0.49 0.0 0 0 674.25 239.78
  Z
  M 771.18 194.36
  C 775.89 189.97 782.43 182.08 789.81 177.78
  C 797.40 173.36 810.29 172.25 815.60 180.71
  Q 819.35 186.67 819.26 193.93
  C 819.20 198.21 819.47 203.19 819.14 206.75
  A 0.64 0.64 0.0 0 1 818.56 207.33
  Q 810.15 208.12 797.25 209.72
  C 784.41 211.30 770.80 216.42 763.63 226.90
  C 754.19 240.69 758.52 259.46 773.87 266.97
  C 790.80 275.26 807.43 266.75 818.17 253.21
  A 0.54 0.54 0.0 0 1 819.14 253.53
  Q 819.30 260.41 823.56 264.97
  C 830.82 272.74 845.55 271.38 853.25 264.98
  Q 856.99 261.86 857.89 257.28
  A 0.70 0.70 0.0 0 0 856.95 256.49
  C 855.17 257.15 852.57 258.61 850.21 258.72
  C 842.14 259.08 841.33 252.16 841.35 245.74
  Q 841.46 214.38 841.41 199.75
  C 841.36 184.13 837.33 171.82 820.55 167.60
  Q 816.35 166.55 809.78 166.30
  C 793.85 165.72 779.63 169.54 765.89 176.98
  A 1.00 0.99 67.7 0 0 765.41 178.15
  L 770.29 194.13
  A 0.54 0.54 0.0 0 0 771.18 194.36
  Z
  M 1095.28 211.01
  Q 1097.30 190.59 1084.94 178.24
  C 1064.28 157.58 1033.76 165.06 1017.74 186.60
  C 1008.79 198.63 1005.83 214.24 1007.51 229.42
  C 1010.63 257.50 1033.30 271.99 1060.24 269.51
  C 1073.84 268.25 1088.63 260.92 1093.97 247.83
  Q 1095.05 245.20 1094.80 242.81
  A 0.69 0.69 0.0 0 0 1093.66 242.36
  Q 1090.48 245.07 1089.10 246.29
  C 1083.08 251.57 1076.16 254.75 1068.07 255.54
  C 1059.07 256.44 1051.08 255.63 1043.21 250.88
  C 1029.63 242.70 1028.65 225.93 1029.52 211.81
  A 0.53 0.53 0.0 0 1 1030.05 211.31
  L 1094.88 211.37
  A 0.41 0.40 -86.8 0 0 1095.28 211.01
  Z
  M 952.41 267.94
  A 0.90 0.90 0.0 0 0 953.31 267.04
  L 953.31 168.98
  A 0.90 0.90 0.0 0 0 952.19 168.11
  L 932.05 173.26
  A 0.90 0.90 0.0 0 0 931.37 174.13
  L 931.37 267.04
  A 0.90 0.90 0.0 0 0 932.27 267.94
  L 952.41 267.94
  Z
  M 408.02 168.56
  A 0.40 0.39 -11.3 0 0 407.65 169.10
  L 449.33 267.63
  A 0.61 0.61 0.0 0 0 449.89 268.00
  L 457.12 268.00
  A 1.55 1.55 0.0 0 0 458.57 267.00
  L 495.81 168.96
  A 0.31 0.31 0.0 0 0 495.52 168.54
  L 482.98 168.54
  A 0.76 0.75 -83.1 0 0 482.25 169.12
  Q 477.20 190.89 472.47 205.50
  Q 467.67 220.34 460.85 240.02
  A 0.68 0.68 0.0 0 1 459.53 239.86
  Q 459.34 238.06 458.80 236.71
  Q 448.52 210.79 431.85 168.94
  A 0.62 0.60 -10.5 0 0 431.28 168.56
  L 408.02 168.56
  Z
  M 456.44 337.22
  C 456.23 342.66 451.63 347.37 446.51 348.29
  Q 436.76 350.04 431.50 344.16
  C 422.08 333.63 429.43 315.44 444.78 317.49
  Q 451.07 318.33 455.17 324.08
  A 0.31 0.30 -29.1 0 0 455.54 324.18
  L 461.29 321.71
  A 0.26 0.25 61.7 0 0 461.40 321.34
  Q 456.01 313.11 447.47 311.64
  C 430.58 308.73 418.34 321.49 421.59 338.21
  Q 423.65 348.82 433.98 353.56
  Q 436.53 354.73 441.74 354.97
  Q 450.05 355.36 455.88 351.03
  C 462.14 346.37 463.65 339.05 463.40 331.65
  A 0.62 0.62 0.0 0 0 462.78 331.05
  L 443.46 331.05
  A 1.00 1.00 0.0 0 0 442.46 332.05
  L 442.46 335.59
  A 0.89 0.89 0.0 0 0 443.35 336.48
  L 455.73 336.48
  A 0.71 0.71 0.0 0 1 456.44 337.22
  Z
  M 552.1151 311.0778
  A 22.05 21.89 -92.3 0 0 531.1276 333.9885
  A 22.05 21.89 -92.3 0 0 553.8849 355.1422
  A 22.05 21.89 -92.3 0 0 574.8724 332.2315
  A 22.05 21.89 -92.3 0 0 552.1151 311.0778
  Z
  M 487.00 312.82
  L 487.03 353.24
  A 0.69 0.68 89.9 0 0 487.71 353.93
  L 510.05 353.95
  A 1.02 1.00 4.2 0 0 511.05 353.09
  L 511.66 349.16
  A 0.81 0.80 -85.8 0 0 510.86 348.23
  L 494.09 348.37
  A 0.36 0.35 89.1 0 1 493.73 348.01
  L 493.78 312.84
  A 0.54 0.54 0.0 0 0 493.24 312.30
  L 487.51 312.31
  A 0.51 0.51 0.0 0 0 487.00 312.82
  Z
  M 625.46 331.52
  C 633.66 322.90 627.58 312.57 616.76 312.40
  Q 615.99 312.39 599.63 312.39
  A 0.50 0.50 0.0 0 0 599.13 312.89
  L 599.13 353.16
  A 0.75 0.75 0.0 0 0 599.86 353.91
  Q 609.64 354.05 614.75 354.04
  C 620.34 354.03 626.18 353.00 629.09 348.19
  C 632.28 342.89 631.09 336.02 625.58 332.47
  A 0.62 0.62 0.0 0 1 625.46 331.52
  Z
  M 669.97 343.18
  Q 673.97 343.18 678.42 343.16
  A 0.83 0.83 0.0 0 1 679.19 343.69
  L 682.96 352.97
  A 1.79 1.78 78.9 0 0 684.62 354.09
  L 689.03 354.07
  A 0.74 0.74 0.0 0 0 689.72 353.06
  L 673.59 313.21
  A 1.18 1.17 -9.6 0 0 672.56 312.49
  Q 671.45 312.43 669.95 312.43
  Q 668.46 312.43 667.35 312.49
  A 1.18 1.17 9.5 0 0 666.32 313.22
  L 650.24 353.09
  A 0.74 0.74 0.0 0 0 650.93 354.10
  L 655.34 354.11
  A 1.79 1.78 -78.9 0 0 657.00 352.98
  L 660.75 343.70
  A 0.83 0.83 0.0 0 1 661.53 343.17
  Q 665.97 343.18 669.97 343.18
  Z
  M 719.63 313.01
  A 0.66 0.66 0.0 0 0 718.97 312.35
  L 713.56 312.35
  A 0.66 0.66 0.0 0 0 712.90 313.01
  L 712.90 353.24
  A 0.66 0.66 0.0 0 0 713.56 353.90
  L 736.18 353.90
  A 0.66 0.66 0.0 0 0 736.83 353.33
  L 737.44 349.04
  A 0.66 0.66 0.0 0 0 736.79 348.29
  L 720.29 348.29
  A 0.66 0.66 0.0 0 1 719.63 347.63
  L 719.63 313.01
  Z
  M 813.23 346.97
  Q 813.36 346.97 813.45 346.93
  Q 813.97 346.76 814.33 346.21
  Q 821.43 335.41 826.61 326.13
  A 0.22 0.22 0.0 0 1 827.02 326.24
  L 827.02 353.30
  A 0.76 0.76 0.0 0 0 827.78 354.06
  L 832.38 354.06
  A 0.76 0.76 0.0 0 0 833.14 353.30
  L 833.14 312.91
  A 0.56 0.56 0.0 0 0 832.58 312.35
  L 829.11 312.35
  A 1.52 1.50 -74.6 0 0 827.81 313.10
  Q 817.78 330.08 813.68 336.99
  Q 813.57 337.19 813.25 337.19
  Q 812.92 337.19 812.81 336.99
  Q 808.74 330.06 798.78 313.04
  A 1.52 1.50 74.8 0 0 797.48 312.29
  L 794.01 312.27
  A 0.56 0.56 0.0 0 0 793.45 312.83
  L 793.29 353.22
  A 0.76 0.76 0.0 0 0 794.04 353.98
  L 798.64 354.00
  A 0.76 0.76 0.0 0 0 799.41 353.24
  L 799.52 326.18
  A 0.22 0.22 0.0 0 1 799.93 326.08
  Q 805.07 335.38 812.12 346.21
  Q 812.48 346.76 813.00 346.93
  Q 813.09 346.97 813.23 346.97
  Z
  M 885.76 349.19
  A 0.75 0.75 0.0 0 0 885.01 348.44
  L 868.11 348.44
  A 0.75 0.75 0.0 0 1 867.36 347.69
  L 867.36 335.38
  A 0.75 0.75 0.0 0 1 868.11 334.63
  L 882.58 334.63
  A 0.75 0.75 0.0 0 0 883.33 333.88
  L 883.33 330.53
  A 0.75 0.75 0.0 0 0 882.58 329.78
  L 868.11 329.78
  A 0.75 0.75 0.0 0 1 867.36 329.03
  L 867.36 318.16
  A 0.75 0.75 0.0 0 1 868.11 317.41
  L 885.09 317.41
  A 0.75 0.75 0.0 0 0 885.84 316.66
  L 885.84 313.09
  A 0.75 0.75 0.0 0 0 885.09 312.34
  L 861.83 312.34
  A 0.75 0.75 0.0 0 0 861.08 313.09
  L 861.08 353.16
  A 0.75 0.75 0.0 0 0 861.83 353.91
  L 885.01 353.91
  A 0.75 0.75 0.0 0 0 885.76 353.16
  L 885.76 349.19
  Z
  M 911.47 313.02
  L 911.75 353.18
  A 0.69 0.69 0.0 0 0 912.45 353.87
  L 927.88 353.76
  A 18.70 17.86 -0.4 0 0 946.45 335.77
  L 946.41 329.95
  A 18.70 17.86 -0.4 0 0 927.59 312.22
  L 912.16 312.33
  A 0.69 0.69 0.0 0 0 911.47 313.02
  Z
  M 977.0250 313.0346
  A 0.82 0.82 0.0 0 0 976.2036 312.2160
  L 971.5836 312.2241
  A 0.82 0.82 0.0 0 0 970.7650 313.0455
  L 970.8350 353.1054
  A 0.82 0.82 0.0 0 0 971.6564 353.9240
  L 976.2764 353.9159
  A 0.82 0.82 0.0 0 0 977.0950 353.0945
  L 977.0250 313.0346
  Z
  M 1020.11 343.15
  Q 1024.12 343.16 1028.57 343.16
  A 0.84 0.83 79.0 0 1 1029.35 343.69
  L 1033.09 353.01
  A 1.79 1.78 79.1 0 0 1034.75 354.14
  L 1039.18 354.14
  A 0.74 0.74 0.0 0 0 1039.87 353.13
  L 1023.84 313.12
  A 1.18 1.18 0.0 0 0 1022.81 312.39
  Q 1021.70 312.33 1020.20 312.33
  Q 1018.70 312.32 1017.59 312.37
  A 1.18 1.18 0.0 0 0 1016.56 313.10
  L 1000.29 353.01
  A 0.74 0.74 0.0 0 0 1000.97 354.03
  L 1005.40 354.05
  A 1.79 1.78 -78.7 0 0 1007.07 352.93
  L 1010.87 343.64
  A 0.84 0.83 -78.7 0 1 1011.64 343.11
  Q 1016.10 343.14 1020.11 343.15
  Z"
/>
<path fill="#ffffff" d="
  M 993.04 267.94
  L 972.15 267.94
  A 0.72 0.72 0.0 0 1 971.43 267.22
  L 971.43 121.41
  A 0.72 0.72 0.0 0 1 971.94 120.72
  L 992.83 114.34
  A 0.72 0.72 0.0 0 1 993.76 115.03
  L 993.76 267.22
  A 0.72 0.72 0.0 0 1 993.04 267.94
  Z"
/>
<path fill="#f7bd43" d="
  M 224.92 263.61
  Q 223.23 263.86 222.62 262.63
  Q 218.31 253.85 217.04 250.72
  C 214.84 245.24 212.78 241.93 210.88 236.65
  Q 210.62 235.94 207.11 227.84
  Q 187.27 182.08 173.65 150.16
  C 169.94 141.48 166.02 134.62 159.15 129.43
  Q 148.68 121.51 135.29 120.45
  Q 129.35 119.98 125.47 119.70
  Q 121.84 119.44 103.80 118.94
  A 1.23 1.23 0.0 0 0 102.68 120.75
  C 105.14 125.44 106.63 130.29 109.02 135.22
  Q 114.47 146.44 117.90 155.53
  Q 119.17 158.89 121.93 164.29
  Q 123.35 167.09 125.87 173.21
  Q 136.04 197.92 136.57 199.29
  Q 138.21 203.44 141.44 210.33
  Q 146.56 221.22 152.00 234.45
  Q 154.52 240.56 154.91 241.34
  C 157.41 246.29 159.26 252.44 161.36 256.58
  Q 163.81 261.43 165.03 264.85
  C 166.74 269.65 170.59 277.02 172.59 282.04
  Q 177.27 293.82 179.07 297.48
  Q 180.36 300.12 181.94 304.36
  C 183.83 309.43 186.17 313.90 188.21 319.08
  Q 189.19 321.54 191.54 326.94
  C 198.08 341.91 204.23 357.16 211.38 371.85
  A 1.96 1.95 67.2 0 0 213.79 372.84
  Q 222.77 369.68 232.13 364.05
  C 240.03 359.30 246.84 352.28 250.69 344.70
  Q 253.26 339.63 258.85 325.38
  Q 259.66 323.32 260.54 322.16
  A 2.15 2.12 75.6 0 0 260.79 321.73
  L 305.49 217.49
  A 0.92 0.90 -47.6 0 0 305.46 216.71
  Q 298.58 203.95 298.23 203.31
  C 291.65 191.06 284.44 173.62 279.84 164.86
  Q 274.69 155.02 274.21 154.19
  A 0.27 0.27 0.0 0 0 273.73 154.20
  Q 273.03 155.57 267.46 168.85
  Q 253.77 201.53 245.73 219.17
  Q 242.50 226.26 240.72 231.00
  Q 238.10 237.98 235.80 242.87
  Q 232.13 250.71 229.19 258.63
  A 2.87 2.49 -22.5 0 1 228.93 259.15
  Q 227.40 261.50 226.57 259.99
  Q 238.39 232.49 250.04 205.13
  Q 259.81 182.18 272.80 152.17
  Q 278.44 139.15 281.86 134.91
  C 288.11 127.17 299.84 119.21 310.51 118.55
  Q 330.68 117.30 350.12 117.45
  A 0.47 0.47 0.0 0 1 350.55 118.11
  Q 297.37 241.10 256.10 337.19
  Q 251.59 347.69 248.63 351.49
  C 239.19 363.60 226.16 370.61 211.40 375.32
  A 0.53 0.53 0.0 0 1 210.75 375.02
  L 100.02 117.52
  A 0.02 0.01 -9.2 0 1 100.04 117.50
  C 114.00 117.58 124.34 117.60 135.82 118.58
  Q 141.69 119.09 146.22 120.68
  Q 159.68 125.41 168.02 135.95
  Q 171.42 140.25 177.85 155.25
  Q 188.84 180.90 207.81 224.29
  Q 216.26 243.59 224.92 263.61
  Z"
/>
<path fill="#f7af32" d="
  M 224.92 263.61
  Q 225.87 262.56 226.57 259.99
  Q 227.40 261.50 228.93 259.15
  A 2.87 2.49 -22.5 0 0 229.19 258.63
  Q 232.13 250.71 235.80 242.87
  Q 238.10 237.98 240.72 231.00
  Q 242.50 226.26 245.73 219.17
  Q 253.77 201.53 267.46 168.85
  Q 273.03 155.57 273.73 154.20
  A 0.27 0.27 0.0 0 1 274.21 154.19
  Q 274.69 155.02 279.84 164.86
  C 284.44 173.62 291.65 191.06 298.23 203.31
  Q 298.58 203.95 305.46 216.71
  A 0.92 0.90 -47.6 0 1 305.49 217.49
  L 260.79 321.73
  A 2.15 2.12 75.6 0 1 260.54 322.16
  Q 259.66 323.32 258.85 325.38
  Q 253.26 339.63 250.69 344.70
  C 246.84 352.28 240.03 359.30 232.13 364.05
  Q 222.77 369.68 213.79 372.84
  A 1.96 1.95 67.2 0 1 211.38 371.85
  C 204.23 357.16 198.08 341.91 191.54 326.94
  Q 189.19 321.54 188.21 319.08
  C 186.17 313.90 183.83 309.43 181.94 304.36
  Q 180.36 300.12 179.07 297.48
  Q 177.27 293.82 172.59 282.04
  C 170.59 277.02 166.74 269.65 165.03 264.85
  Q 163.81 261.43 161.36 256.58
  C 159.26 252.44 157.41 246.29 154.91 241.34
  Q 154.52 240.56 152.00 234.45
  Q 146.56 221.22 141.44 210.33
  Q 138.21 203.44 136.57 199.29
  Q 136.04 197.92 125.87 173.21
  Q 123.35 167.09 121.93 164.29
  Q 119.17 158.89 117.90 155.53
  Q 114.47 146.44 109.02 135.22
  C 106.63 130.29 105.14 125.44 102.68 120.75
  A 1.23 1.23 0.0 0 1 103.80 118.94
  Q 121.84 119.44 125.47 119.70
  Q 129.35 119.98 135.29 120.45
  Q 148.68 121.51 159.15 129.43
  C 166.02 134.62 169.94 141.48 173.65 150.16
  Q 187.27 182.08 207.11 227.84
  Q 210.62 235.94 210.88 236.65
  C 212.78 241.93 214.84 245.24 217.04 250.72
  Q 218.31 253.85 222.62 262.63
  Q 223.23 263.86 224.92 263.61
  Z"
/>
<ellipse fill="#ffffff" cx="0.00" cy="0.00" transform="translate(942.51,145.65) rotate(-19.5)" rx="11.67" ry="11.28"/>
<path fill="#ffffff" d="
  M 916.63 253.17
  C 917.47 266.85 899.23 271.07 889.12 269.58
  Q 871.76 267.03 868.87 249.95
  Q 868.16 245.77 868.27 238.00
  Q 868.64 211.54 868.69 177.00
  A 0.71 0.71 0.0 0 0 867.96 176.29
  L 855.69 176.67
  A 1.13 1.13 0.0 0 1 854.52 175.54
  L 854.52 170.70
  A 1.59 1.59 0.0 0 1 856.06 169.11
  L 868.15 168.74
  A 0.57 0.57 0.0 0 0 868.70 168.17
  L 868.70 150.28
  A 0.79 0.78 -8.5 0 1 869.26 149.53
  L 890.22 143.13
  A 0.94 0.94 0.0 0 1 891.43 144.13
  Q 890.07 156.91 890.37 168.60
  A 0.70 0.69 88.4 0 0 891.08 169.28
  L 913.36 168.59
  A 1.06 1.06 0.0 0 1 914.44 169.80
  L 913.70 175.02
  A 1.73 1.72 4.0 0 1 911.99 176.50
  L 890.98 176.50
  A 0.33 0.33 0.0 0 0 890.65 176.84
  Q 890.90 190.82 890.75 213.59
  C 890.69 223.95 889.74 234.53 890.31 245.01
  Q 890.62 250.76 892.54 254.68
  C 895.96 261.67 905.65 261.00 911.13 257.30
  Q 913.88 255.44 915.99 252.95
  A 0.37 0.36 63.9 0 1 916.63 253.17
  Z"
/>
<path fill="#ffffff" d="
  M 618.13 191.16
  A 0.28 0.28 0.0 0 0 618.66 191.28
  Q 623.55 182.03 631.52 174.81
  Q 645.91 161.77 664.97 166.35
  A 0.74 0.74 0.0 0 1 665.47 167.39
  L 656.82 185.40
  A 1.00 0.99 -69.5 0 1 655.66 185.93
  C 645.79 183.24 636.65 183.04 628.99 190.20
  C 626.63 192.40 621.14 198.29 621.15 202.00
  C 621.25 236.81 621.60 256.91 621.17 267.28
  A 0.69 0.69 0.0 0 1 620.48 267.94
  L 598.55 267.94
  A 0.96 0.96 0.0 0 1 597.59 266.98
  L 597.59 172.52
  A 0.34 0.34 0.0 0 1 597.84 172.19
  L 616.41 167.44
  A 0.44 0.44 0.0 0 1 616.95 167.86
  Q 617.11 173.37 617.98 180.96
  C 618.37 184.34 618.02 188.41 618.13 191.16
  Z"
/>
<path fill="#ffffff" d="
  M 583.78 210.97
  A 0.40 0.40 0.0 0 1 583.38 211.33
  L 518.66 211.33
  A 0.53 0.53 0.0 0 0 518.13 211.83
  C 517.28 225.92 518.27 242.66 531.84 250.82
  C 539.70 255.55 547.67 256.35 556.66 255.45
  C 564.73 254.65 571.64 251.47 577.64 246.19
  Q 579.02 244.97 582.19 242.26
  A 0.69 0.69 0.0 0 1 583.33 242.71
  Q 583.58 245.10 582.51 247.72
  C 577.19 260.80 562.43 268.13 548.85 269.40
  C 521.96 271.90 499.32 257.46 496.18 229.43
  C 494.49 214.28 497.43 198.69 506.35 186.67
  C 522.32 165.15 552.78 157.66 573.43 178.26
  Q 585.78 190.58 583.78 210.97
  Z
  M 519.49 202.85
  L 562.50 202.85
  A 0.41 0.41 0.0 0 0 562.91 202.43
  C 562.88 193.60 560.23 180.68 552.48 175.88
  C 548.35 173.32 543.05 173.08 538.45 173.88
  C 526.87 175.89 519.90 191.39 518.88 202.18
  A 0.62 0.61 -87.4 0 0 519.49 202.85
  Z"
/>
<path fill="#ffffff" d="
  M 674.25 239.78
  A 0.49 0.49 0.0 0 1 675.09 239.63
  C 682.75 249.18 693.96 257.41 705.43 259.56
  C 714.61 261.28 731.04 258.81 731.49 246.36
  Q 731.71 240.15 725.98 236.05
  Q 721.39 232.77 716.57 230.88
  C 702.68 225.43 690.91 221.26 681.00 213.03
  C 670.78 204.53 667.83 190.63 675.86 179.59
  C 686.21 165.34 709.56 164.86 725.25 167.50
  Q 735.03 169.14 743.57 173.84
  A 0.42 0.41 25.6 0 1 743.76 174.35
  L 736.63 193.12
  A 0.58 0.58 0.0 0 1 735.65 193.29
  C 725.51 181.75 715.44 171.08 698.49 175.63
  C 691.55 177.50 684.89 183.13 687.87 191.18
  C 689.76 196.29 696.80 199.66 702.26 201.77
  Q 707.40 203.76 724.67 210.61
  Q 729.56 212.55 736.02 217.42
  C 747.72 226.22 751.14 240.21 743.97 253.02
  C 737.45 264.64 722.10 269.33 709.52 269.79
  Q 690.17 270.49 673.09 262.69
  Q 670.21 261.38 668.10 259.52
  A 0.86 0.86 0.0 0 1 667.85 258.59
  L 674.25 239.78
  Z"
/>
<path fill="#ffffff" d="
  M 771.18 194.36
  A 0.54 0.54 0.0 0 1 770.29 194.13
  L 765.41 178.15
  A 1.00 0.99 67.7 0 1 765.89 176.98
  C 779.63 169.54 793.85 165.72 809.78 166.30
  Q 816.35 166.55 820.55 167.60
  C 837.33 171.82 841.36 184.13 841.41 199.75
  Q 841.46 214.38 841.35 245.74
  C 841.33 252.16 842.14 259.08 850.21 258.72
  C 852.57 258.61 855.17 257.15 856.95 256.49
  A 0.70 0.70 0.0 0 1 857.89 257.28
  Q 856.99 261.86 853.25 264.98
  C 845.55 271.38 830.82 272.74 823.56 264.97
  Q 819.30 260.41 819.14 253.53
  A 0.54 0.54 0.0 0 0 818.17 253.21
  C 807.43 266.75 790.80 275.26 773.87 266.97
  C 758.52 259.46 754.19 240.69 763.63 226.90
  C 770.80 216.42 784.41 211.30 797.25 209.72
  Q 810.15 208.12 818.56 207.33
  A 0.64 0.64 0.0 0 0 819.14 206.75
  C 819.47 203.19 819.20 198.21 819.26 193.93
  Q 819.35 186.67 815.60 180.71
  C 810.29 172.25 797.40 173.36 789.81 177.78
  C 782.43 182.08 775.89 189.97 771.18 194.36
  Z
  M 818.50 215.15
  Q 809.79 214.37 801.29 216.31
  C 787.45 219.48 779.45 230.15 781.87 244.60
  C 783.23 252.72 789.38 257.06 797.53 256.93
  C 806.28 256.80 814.05 250.69 818.76 243.73
  A 2.79 2.72 62.4 0 0 819.22 242.20
  L 819.22 215.94
  A 0.80 0.79 2.8 0 0 818.50 215.15
  Z"
/>
<path fill="#ffffff" d="
  M 1095.28 211.01
  A 0.41 0.40 -86.8 0 1 1094.88 211.37
  L 1030.05 211.31
  A 0.53 0.53 0.0 0 0 1029.52 211.81
  C 1028.65 225.93 1029.63 242.70 1043.21 250.88
  C 1051.08 255.63 1059.07 256.44 1068.07 255.54
  C 1076.16 254.75 1083.08 251.57 1089.10 246.29
  Q 1090.48 245.07 1093.66 242.36
  A 0.69 0.69 0.0 0 1 1094.80 242.81
  Q 1095.05 245.20 1093.97 247.83
  C 1088.63 260.92 1073.84 268.25 1060.24 269.51
  C 1033.30 271.99 1010.63 257.50 1007.51 229.42
  C 1005.83 214.24 1008.79 198.63 1017.74 186.60
  C 1033.76 165.06 1064.28 157.58 1084.94 178.24
  Q 1097.30 190.59 1095.28 211.01
  Z
  M 1030.78 202.81
  L 1073.88 202.78
  A 0.41 0.41 0.0 0 0 1074.29 202.36
  C 1074.25 193.51 1071.59 180.57 1063.82 175.76
  C 1059.68 173.20 1054.37 172.97 1049.76 173.77
  C 1038.16 175.79 1031.18 191.33 1030.17 202.14
  A 0.62 0.61 -87.5 0 0 1030.78 202.81
  Z"
/>
<path fill="#ffffff" d="
  M 952.41 267.94
  L 932.27 267.94
  A 0.90 0.90 0.0 0 1 931.37 267.04
  L 931.37 174.13
  A 0.90 0.90 0.0 0 1 932.05 173.26
  L 952.19 168.11
  A 0.90 0.90 0.0 0 1 953.31 168.98
  L 953.31 267.04
  A 0.90 0.90 0.0 0 1 952.41 267.94
  Z"
/>
<path fill="#ffffff" d="
  M 408.02 168.56
  L 431.28 168.56
  A 0.62 0.60 -10.5 0 1 431.85 168.94
  Q 448.52 210.79 458.80 236.71
  Q 459.34 238.06 459.53 239.86
  A 0.68 0.68 0.0 0 0 460.85 240.02
  Q 467.67 220.34 472.47 205.50
  Q 477.20 190.89 482.25 169.12
  A 0.76 0.75 -83.1 0 1 482.98 168.54
  L 495.52 168.54
  A 0.31 0.31 0.0 0 1 495.81 168.96
  L 458.57 267.00
  A 1.55 1.55 0.0 0 1 457.12 268.00
  L 449.89 268.00
  A 0.61 0.61 0.0 0 1 449.33 267.63
  L 407.65 169.10
  A 0.40 0.39 -11.3 0 1 408.02 168.56
  Z"
/>
<path fill="#000000" d="
  M 518.88 202.18
  C 519.90 191.39 526.87 175.89 538.45 173.88
  C 543.05 173.08 548.35 173.32 552.48 175.88
  C 560.23 180.68 562.88 193.60 562.91 202.43
  A 0.41 0.41 0.0 0 1 562.50 202.85
  L 519.49 202.85
  A 0.62 0.61 -87.4 0 1 518.88 202.18
  Z"
/>
<path fill="#000000" d="
  M 1030.78 202.81
  A 0.62 0.61 -87.5 0 1 1030.17 202.14
  C 1031.18 191.33 1038.16 175.79 1049.76 173.77
  C 1054.37 172.97 1059.68 173.20 1063.82 175.76
  C 1071.59 180.57 1074.25 193.51 1074.29 202.36
  A 0.41 0.41 0.0 0 1 1073.88 202.78
  L 1030.78 202.81
  Z"
/>
<path fill="#000000" d="
  M 818.50 215.15
  A 0.80 0.79 2.8 0 1 819.22 215.94
  L 819.22 242.20
  A 2.79 2.72 62.4 0 1 818.76 243.73
  C 814.05 250.69 806.28 256.80 797.53 256.93
  C 789.38 257.06 783.23 252.72 781.87 244.60
  C 779.45 230.15 787.45 219.48 801.29 216.31
  Q 809.79 214.37 818.50 215.15
  Z"
/>
<path fill="#f7bd43" d="
  M 455.73 336.48
  L 443.35 336.48
  A 0.89 0.89 0.0 0 1 442.46 335.59
  L 442.46 332.05
  A 1.00 1.00 0.0 0 1 443.46 331.05
  L 462.78 331.05
  A 0.62 0.62 0.0 0 1 463.40 331.65
  C 463.65 339.05 462.14 346.37 455.88 351.03
  Q 450.05 355.36 441.74 354.97
  Q 436.53 354.73 433.98 353.56
  Q 423.65 348.82 421.59 338.21
  C 418.34 321.49 430.58 308.73 447.47 311.64
  Q 456.01 313.11 461.40 321.34
  A 0.26 0.25 61.7 0 1 461.29 321.71
  L 455.54 324.18
  A 0.31 0.30 -29.1 0 1 455.17 324.08
  Q 451.07 318.33 444.78 317.49
  C 429.43 315.44 422.08 333.63 431.50 344.16
  Q 436.76 350.04 446.51 348.29
  C 451.63 347.37 456.23 342.66 456.44 337.22
  A 0.71 0.71 0.0 0 0 455.73 336.48
  Z"
/>
<path fill="#f7bd43" d="
  M 552.1151 311.0778
  A 22.05 21.89 -92.3 0 1 574.8724 332.2315
  A 22.05 21.89 -92.3 0 1 553.8849 355.1422
  A 22.05 21.89 -92.3 0 1 531.1276 333.9885
  A 22.05 21.89 -92.3 0 1 552.1151 311.0778
  Z
  M 552.8872 317.2502
  A 15.82 15.37 -90.3 0 0 537.6002 333.1505
  A 15.82 15.37 -90.3 0 0 553.0528 348.8898
  A 15.82 15.37 -90.3 0 0 568.3398 332.9895
  A 15.82 15.37 -90.3 0 0 552.8872 317.2502
  Z"
/>
<path fill="#f7bd43" d="
  M 487.00 312.82
  A 0.51 0.51 0.0 0 1 487.51 312.31
  L 493.24 312.30
  A 0.54 0.54 0.0 0 1 493.78 312.84
  L 493.73 348.01
  A 0.36 0.35 89.1 0 0 494.09 348.37
  L 510.86 348.23
  A 0.81 0.80 -85.8 0 1 511.66 349.16
  L 511.05 353.09
  A 1.02 1.00 4.2 0 1 510.05 353.95
  L 487.71 353.93
  A 0.69 0.68 89.9 0 1 487.03 353.24
  L 487.00 312.82
  Z"
/>
<path fill="#f7bd43" d="
  M 625.58 332.47
  C 631.09 336.02 632.28 342.89 629.09 348.19
  C 626.18 353.00 620.34 354.03 614.75 354.04
  Q 609.64 354.05 599.86 353.91
  A 0.75 0.75 0.0 0 1 599.13 353.16
  L 599.13 312.89
  A 0.50 0.50 0.0 0 1 599.63 312.39
  Q 615.99 312.39 616.76 312.40
  C 627.58 312.57 633.66 322.90 625.46 331.52
  A 0.62 0.62 0.0 0 0 625.58 332.47
  Z
  M 605.41 317.70
  L 605.51 329.71
  A 0.28 0.28 0.0 0 0 605.80 329.99
  L 616.12 329.90
  A 6.57 6.17 -0.5 0 0 622.64 323.68
  L 622.64 323.44
  A 6.57 6.17 -0.5 0 0 616.02 317.32
  L 605.69 317.41
  A 0.28 0.28 0.0 0 0 605.41 317.70
  Z
  M 605.55 335.23
  L 605.45 348.59
  A 0.27 0.27 0.0 0 0 605.72 348.86
  L 616.41 348.93
  A 7.42 6.52 0.4 0 0 623.88 342.46
  L 623.88 341.60
  A 7.42 6.52 0.4 0 0 616.51 335.03
  L 605.82 334.96
  A 0.27 0.27 0.0 0 0 605.55 335.23
  Z"
/>
<path fill="#f7bd43" d="
  M 669.97 343.18
  Q 665.97 343.18 661.53 343.17
  A 0.83 0.83 0.0 0 0 660.75 343.70
  L 657.00 352.98
  A 1.79 1.78 -78.9 0 1 655.34 354.11
  L 650.93 354.10
  A 0.74 0.74 0.0 0 1 650.24 353.09
  L 666.32 313.22
  A 1.18 1.17 9.5 0 1 667.35 312.49
  Q 668.46 312.43 669.95 312.43
  Q 671.45 312.43 672.56 312.49
  A 1.18 1.17 -9.6 0 1 673.59 313.21
  L 689.72 353.06
  A 0.74 0.74 0.0 0 1 689.03 354.07
  L 684.62 354.09
  A 1.79 1.78 78.9 0 1 682.96 352.97
  L 679.19 343.69
  A 0.83 0.83 0.0 0 0 678.42 343.16
  Q 673.97 343.18 669.97 343.18
  Z
  M 662.96 337.31
  A 0.40 0.40 0.0 0 0 663.34 337.85
  L 676.34 337.83
  A 0.40 0.40 0.0 0 0 676.72 337.28
  L 670.18 320.31
  A 0.40 0.40 0.0 0 0 669.44 320.31
  L 662.96 337.31
  Z"
/>
<path fill="#f7bd43" d="
  M 719.63 313.01
  L 719.63 347.63
  A 0.66 0.66 0.0 0 0 720.29 348.29
  L 736.79 348.29
  A 0.66 0.66 0.0 0 1 737.44 349.04
  L 736.83 353.33
  A 0.66 0.66 0.0 0 1 736.18 353.90
  L 713.56 353.90
  A 0.66 0.66 0.0 0 1 712.90 353.24
  L 712.90 313.01
  A 0.66 0.66 0.0 0 1 713.56 312.35
  L 718.97 312.35
  A 0.66 0.66 0.0 0 1 719.63 313.01
  Z"
/>
<path fill="#f7bd43" d="
  M 813.25 337.19
  Q 813.57 337.19 813.68 336.99
  Q 817.78 330.08 827.81 313.10
  A 1.52 1.50 -74.6 0 1 829.11 312.35
  L 832.58 312.35
  A 0.56 0.56 0.0 0 1 833.14 312.91
  L 833.14 353.30
  A 0.76 0.76 0.0 0 1 832.38 354.06
  L 827.78 354.06
  A 0.76 0.76 0.0 0 1 827.02 353.30
  L 827.02 326.24
  A 0.22 0.22 0.0 0 0 826.61 326.13
  Q 821.43 335.41 814.33 346.21
  Q 813.97 346.76 813.45 346.93
  Q 813.36 346.97 813.23 346.97
  Q 813.09 346.97 813.00 346.93
  Q 812.48 346.76 812.12 346.21
  Q 805.07 335.38 799.93 326.08
  A 0.22 0.22 0.0 0 0 799.52 326.18
  L 799.41 353.24
  A 0.76 0.76 0.0 0 1 798.64 354.00
  L 794.04 353.98
  A 0.76 0.76 0.0 0 1 793.29 353.22
  L 793.45 312.83
  A 0.56 0.56 0.0 0 1 794.01 312.27
  L 797.48 312.29
  A 1.52 1.50 74.8 0 1 798.78 313.04
  Q 808.74 330.06 812.81 336.99
  Q 812.92 337.19 813.25 337.19
  Z"
/>
<path fill="#f7bd43" d="
  M 885.76 349.19
  L 885.76 353.16
  A 0.75 0.75 0.0 0 1 885.01 353.91
  L 861.83 353.91
  A 0.75 0.75 0.0 0 1 861.08 353.16
  L 861.08 313.09
  A 0.75 0.75 0.0 0 1 861.83 312.34
  L 885.09 312.34
  A 0.75 0.75 0.0 0 1 885.84 313.09
  L 885.84 316.66
  A 0.75 0.75 0.0 0 1 885.09 317.41
  L 868.11 317.41
  A 0.75 0.75 0.0 0 0 867.36 318.16
  L 867.36 329.03
  A 0.75 0.75 0.0 0 0 868.11 329.78
  L 882.58 329.78
  A 0.75 0.75 0.0 0 1 883.33 330.53
  L 883.33 333.88
  A 0.75 0.75 0.0 0 1 882.58 334.63
  L 868.11 334.63
  A 0.75 0.75 0.0 0 0 867.36 335.38
  L 867.36 347.69
  A 0.75 0.75 0.0 0 0 868.11 348.44
  L 885.01 348.44
  A 0.75 0.75 0.0 0 1 885.76 349.19
  Z"
/>
<path fill="#f7bd43" d="
  M 911.47 313.02
  A 0.69 0.69 0.0 0 1 912.16 312.33
  L 927.59 312.22
  A 18.70 17.86 -0.4 0 1 946.41 329.95
  L 946.45 335.77
  A 18.70 17.86 -0.4 0 1 927.88 353.76
  L 912.45 353.87
  A 0.69 0.69 0.0 0 1 911.75 353.18
  L 911.47 313.02
  Z
  M 918.54 317.51
  L 918.60 348.15
  A 0.36 0.36 0.0 0 0 918.96 348.51
  L 925.96 348.50
  A 14.48 13.98 -0.1 0 0 940.41 334.49
  L 940.41 331.09
  A 14.48 13.98 -0.1 0 0 925.90 317.14
  L 918.90 317.15
  A 0.36 0.36 0.0 0 0 918.54 317.51
  Z"
/>
<rect fill="#f7bd43" x="-3.13" y="-20.85" transform="translate(973.93,333.07) rotate(-0.1)" width="6.26" height="41.70" rx="0.82"/>
<path fill="#f7bd43" d="
  M 1020.20 312.33
  Q 1021.70 312.33 1022.81 312.39
  A 1.18 1.18 0.0 0 1 1023.84 313.12
  L 1039.87 353.13
  A 0.74 0.74 0.0 0 1 1039.18 354.14
  L 1034.75 354.14
  A 1.79 1.78 79.1 0 1 1033.09 353.01
  L 1029.35 343.69
  A 0.84 0.83 79.0 0 0 1028.57 343.16
  Q 1024.12 343.16 1020.11 343.15
  Q 1016.10 343.14 1011.64 343.11
  A 0.84 0.83 -78.7 0 0 1010.87 343.64
  L 1007.07 352.93
  A 1.79 1.78 -78.7 0 1 1005.40 354.05
  L 1000.97 354.03
  A 0.74 0.74 0.0 0 1 1000.29 353.01
  L 1016.56 313.10
  A 1.18 1.18 0.0 0 1 1017.59 312.37
  Q 1018.70 312.32 1020.20 312.33
  Z
  M 1013.02 337.32
  A 0.41 0.41 0.0 0 0 1013.41 337.88
  L 1026.70 337.83
  A 0.41 0.41 0.0 0 0 1027.08 337.27
  L 1020.37 320.33
  A 0.41 0.41 0.0 0 0 1019.61 320.33
  L 1013.02 337.32
  Z"
/>
<ellipse fill="#000000" cx="0.00" cy="0.00" transform="translate(552.97,333.07) rotate(-90.3)" rx="15.82" ry="15.37"/>
<path fill="#000000" d="
  M 605.41 317.70
  A 0.28 0.28 0.0 0 1 605.69 317.41
  L 616.02 317.32
  A 6.57 6.17 -0.5 0 1 622.64 323.44
  L 622.64 323.68
  A 6.57 6.17 -0.5 0 1 616.12 329.90
  L 605.80 329.99
  A 0.28 0.28 0.0 0 1 605.51 329.71
  L 605.41 317.70
  Z"
/>
<path fill="#000000" d="
  M 918.54 317.51
  A 0.36 0.36 0.0 0 1 918.90 317.15
  L 925.90 317.14
  A 14.48 13.98 -0.1 0 1 940.41 331.09
  L 940.41 334.49
  A 14.48 13.98 -0.1 0 1 925.96 348.50
  L 918.96 348.51
  A 0.36 0.36 0.0 0 1 918.60 348.15
  L 918.54 317.51
  Z"
/>
<path fill="#000000" d="
  M 662.96 337.31
  L 669.44 320.31
  A 0.40 0.40 0.0 0 1 670.18 320.31
  L 676.72 337.28
  A 0.40 0.40 0.0 0 1 676.34 337.83
  L 663.34 337.85
  A 0.40 0.40 0.0 0 1 662.96 337.31
  Z"
/>
<path fill="#000000" d="
  M 1013.02 337.32
  L 1019.61 320.33
  A 0.41 0.41 0.0 0 1 1020.37 320.33
  L 1027.08 337.27
  A 0.41 0.41 0.0 0 1 1026.70 337.83
  L 1013.41 337.88
  A 0.41 0.41 0.0 0 1 1013.02 337.32
  Z"
/>
<path fill="#000000" d="
  M 605.55 335.23
  A 0.27 0.27 0.0 0 1 605.82 334.96
  L 616.51 335.03
  A 7.42 6.52 0.4 0 1 623.88 341.60
  L 623.88 342.46
  A 7.42 6.52 0.4 0 1 616.41 348.93
  L 605.72 348.86
  A 0.27 0.27 0.0 0 1 605.45 348.59
  L 605.55 335.23
  Z"
/>
</svg>
